<?xml version="1.0" encoding="utf-8"?>
<svg id="svg412610" viewBox="0 0 1024 768" height="768" width="1024" version="1.1" xmlns="http://www.w3.org/2000/svg" xmlns:xlink="http://www.w3.org/1999/xlink">
  <g id="logo-group" fill="#FFFFFF" style="" transform="matrix(5.418413, 0, 0, 4.379268, -2263.139404, -1299.006836)">
    <image id="container" x="272" y="144" width="480" height="480" style="display: none;" transform="translate(0 0)" fill="#FFFFFF" xlink:href=""/>
    <g id="logo-center" transform="translate(0 0)" fill="#FFFFFF">
      <image id="icon_container" style="display: none;" x="0" y="0" fill="#FFFFFF" xlink:href=""/>
      <g id="slogan" style="font-style:oblique;font-weight:normal;font-size:32px;line-height:1;font-family:'Fanwood Text';font-variant-ligatures:none;text-align:center;text-anchor:middle" transform="translate(0 0)" fill="#FFFFFF"/>
      <g id="title" style="font-style:normal;font-weight:700;font-size:72px;line-height:1;font-family:'Brandmark1 Bold';font-variant-ligatures:normal;text-align:center;text-anchor:middle" transform="translate(0 0)" fill="#FFFFFF">
        <path id="path412619" style="font-style:normal;font-weight:700;font-size:72px;line-height:1;font-family:'Brandmark1 Bold';font-variant-ligatures:normal;text-align:center;text-anchor:middle" d="m 486.31288,2.88 c 3.88799,0 7.56,-0.72 11.08799,-2.16 3.384,-1.44 6.48,-3.528 9.072,-6.12 2.59201,-2.664 4.68,-5.688 6.12001,-9.072 1.43999,-3.528 2.232,-7.272 2.232,-11.088 v -5.688 h -28.512 v 11.304 h 16.27199 c -0.864,2.448 -2.232,4.68 -4.10399,6.552 -3.24,3.24 -7.56,5.04 -12.168,5.04 -4.608,0 -8.928,-1.8 -12.168,-5.04 -3.24001,-3.24 -5.04001,-7.56 -5.04001,-12.168 0,-4.608 1.8,-8.928 5.04001,-12.168 3.24,-3.24 7.56,-5.04 12.168,-5.04 2.80799,0 5.47199,0.648 7.91999,1.944 2.376,1.224 4.392,2.952 5.976,5.112 l 9.144,-6.624 c -2.592,-3.6 -6.048,-6.48 -9.936,-8.568 -3.95999,-2.088 -8.49599,-3.168 -13.10399,-3.168 -3.81601,0 -7.56,0.72 -11.08801,2.232 -3.384,1.44 -6.408,3.528 -9.072,6.12 -2.592,2.592 -4.608,5.688 -6.048,9.072 -1.512,3.528 -2.23199,7.2 -2.23199,11.088 0,3.816 0.71999,7.56 2.23199,11.088 1.44,3.384 3.456,6.408 6.048,9.072 2.664,2.592 5.688,4.608 9.072,6.048 3.52801,1.512 7.272,2.232 11.08801,2.232 z" stroke-width="0px" stroke-linejoin="miter" stroke-miterlimit="2" fill="#CA8A04" stroke="#CA8A04" transform="translate(0 356.716) translate(419.51732 -58.144000000000005) scale(3) translate(-457.87288 54.072)"/>
        <path id="path412621" style="font-style:normal;font-weight:700;font-size:72px;line-height:1;font-family:'Brandmark1 Bold';font-variant-ligatures:normal;text-align:center;text-anchor:middle" d="m 541.016,2.88 c 3.888,0 7.56,-0.72 11.088,-2.16 3.384,-1.44 6.48,-3.528 9.072,-6.12 2.592,-2.664 4.68,-5.688 6.12,-9.072 1.44,-3.528 2.232,-7.272 2.232,-11.088 v -5.688 h -28.512 v 11.304 h 16.272 c -0.864,2.448 -2.232,4.68 -4.104,6.552 -3.24,3.24 -7.56,5.04 -12.168,5.04 -4.608,0 -8.928,-1.8 -12.168,-5.04 -3.24,-3.24 -5.04,-7.56 -5.04,-12.168 0,-4.608 1.8,-8.928 5.04,-12.168 3.24,-3.24 7.56,-5.04 12.168,-5.04 2.808,0 5.472,0.648 7.92,1.944 2.376,1.224 4.392,2.952 5.976,5.112 l 9.144,-6.624 c -2.592,-3.6 -6.048,-6.48 -9.936,-8.568 -3.96,-2.088 -8.496,-3.168 -13.104,-3.168 -3.816,0 -7.56,0.72 -11.088,2.232 -3.384,1.44 -6.408,3.528 -9.072,6.12 -2.592,2.592 -4.608,5.688 -6.048,9.072 -1.512,3.528 -2.232,7.2 -2.232,11.088 0,3.816 0.72,7.56 2.232,11.088 1.44,3.384 3.456,6.408 6.048,9.072 2.664,2.592 5.688,4.608 9.072,6.048 3.528,1.512 7.272,2.232 11.088,2.232 z" stroke-width="0px" stroke-linejoin="miter" stroke-miterlimit="2" fill="#FACC15" stroke="#FACC15" transform="translate(0 356.716) translate(433.62667999999996 -58.144000000000005) scale(3) translate(-512.576 54.072)"/>
      </g>
      <image id="icon" style="display: none;" x="0" y="0" fill="#FFFFFF" xlink:href=""/>
    </g>
  </g>
</svg>