<?xml version="1.0" encoding="utf-8"?>
<svg id="svg267727" viewBox="0 0 1024 125" height="125" width="1024" version="1.1" xmlns="http://www.w3.org/2000/svg" xmlns:xlink="http://www.w3.org/1999/xlink">
  <g id="logo-group" fill="#FFFFFF" transform="matrix(2.632823, 0, 0, 2.632823, -836.461304, -947.256958)" style="">
    <image id="container" x="272" y="144" width="480" height="480" style="display: none;" transform="translate(0 0)" fill="#FFFFFF" xlink:href=""/>
    <g id="logo-center" transform="translate(0 0)" fill="#FFFFFF">
      <image id="icon_container" style="display: none;" x="0" y="0" fill="#FFFFFF" xlink:href=""/>
      <g id="slogan" style="font-style:normal;font-weight:400;font-size:32px;line-height:1;font-family:'Roboto Condensed';font-variant-ligatures:none;text-align:center;text-anchor:middle" transform="translate(0 0)" fill="#FFFFFF"/>
      <g id="title" style="font-style:normal;font-weight:700;font-size:72px;line-height:1;font-family:'Brandmark1 Bold';font-variant-ligatures:normal;text-align:center;text-anchor:middle" transform="translate(0 0)" fill="#FFFFFF">
        <path id="path267736" style="font-style:normal;font-weight:700;font-size:72px;line-height:1;font-family:'Brandmark1 Bold';font-variant-ligatures:normal;text-align:center;text-anchor:middle" d="m 289.64881,2.88 c 3.888,0 7.56,-0.72 11.088,-2.16 3.384,-1.44 6.48,-3.528 9.072,-6.12 2.592,-2.664 4.68,-5.688 6.12,-9.072 1.44,-3.528 2.232,-7.272 2.232,-11.088 v -5.688 h -28.512 v 11.304 h 16.272 c -0.864,2.448 -2.232,4.68 -4.104,6.552 -3.24,3.24 -7.56,5.04 -12.168,5.04 -4.608,0 -8.928,-1.8 -12.168,-5.04 -3.24,-3.24 -5.04,-7.56 -5.04,-12.168 0,-4.608 1.8,-8.928 5.04,-12.168 3.24,-3.24 7.56,-5.04 12.168,-5.04 2.808,0 5.472,0.648 7.92,1.944 2.376,1.224 4.392,2.952 5.976,5.112 l 9.144,-6.624 c -2.592,-3.6 -6.048,-6.48 -9.936,-8.568 -3.96,-2.088 -8.496,-3.168 -13.104,-3.168 -3.816,0 -7.56,0.72 -11.088,2.232 -3.384,1.44 -6.408,3.528 -9.072,6.12 -2.592,2.592 -4.608,5.688 -6.048,9.072 -1.512,3.528 -2.232,7.2 -2.232,11.088 0,3.816 0.72,7.56 2.232,11.088 1.44,3.384 3.456,6.408 6.048,9.072 2.664,2.592 5.688,4.608 9.072,6.048 3.528,1.512 7.272,2.232 11.088,2.232 z" stroke-width="0px" stroke-linejoin="miter" stroke-miterlimit="2" fill="#CA8A04" stroke="#CA8A04" transform="translate(0 298.25848) translate(319.55823125000006 64.45256) scale(0.77) translate(-261.20881 54.072)"/>
        <path id="path267738" style="font-style:normal;font-weight:700;font-size:72px;line-height:1;font-family:'Brandmark1 Bold';font-variant-ligatures:normal;text-align:center;text-anchor:middle" d="M 379.982 406.62 C 382.088 406.62 384.14 406.231 386.135 405.4 C 388.02 404.624 389.684 403.459 391.125 402.018 C 392.566 400.577 393.731 398.858 394.507 396.973 C 395.338 395.033 395.782 392.981 395.782 390.819 C 395.782 388.712 395.338 386.661 394.507 384.665 C 393.731 382.78 392.566 381.117 391.125 379.676 C 389.684 378.234 387.965 377.07 386.135 376.294 C 384.14 375.462 382.088 375.019 379.982 375.019 C 377.819 375.019 375.768 375.462 373.828 376.294 C 371.943 377.07 370.224 378.234 368.783 379.676 C 367.341 381.117 366.177 382.836 365.401 384.665 C 364.569 386.661 364.181 388.712 364.181 390.819 C 364.181 392.981 364.569 395.033 365.401 396.973 C 366.177 398.858 367.341 400.577 368.783 402.018 C 370.224 403.459 371.943 404.624 373.828 405.4 C 375.768 406.231 377.819 406.62 379.982 406.62 Z M 379.982 383.335 C 384.084 383.335 387.466 386.717 387.466 390.819 C 387.466 394.977 384.084 398.304 379.982 398.304 C 375.824 398.304 372.497 394.977 372.497 390.819 C 372.497 386.717 375.824 383.335 379.982 383.335 Z" stroke-width="0px" stroke-linejoin="miter" stroke-miterlimit="2" fill="#D09105" stroke="#D09105"/>
        <path id="path267740" style="font-style:normal;font-weight:700;font-size:72px;line-height:1;font-family:'Brandmark1 Bold';font-variant-ligatures:normal;text-align:center;text-anchor:middle" d="M 397.899 364.374 L 397.899 406.287 L 406.271 406.287 L 406.271 361.602 L 397.899 364.374 Z" stroke-width="0px" stroke-linejoin="miter" stroke-miterlimit="2" fill="#D69905" stroke="#D69905"/>
        <path id="path267742" style="font-style:normal;font-weight:700;font-size:72px;line-height:1;font-family:'Brandmark1 Bold';font-variant-ligatures:normal;text-align:center;text-anchor:middle" d="m 377.96806,-9.504 c 1.008,2.448 2.52,4.608 4.392,6.552 1.872,1.872 4.104,3.312 6.552,4.392 2.52,1.008 5.184,1.584 7.992,1.584 2.736,0 5.4,-0.576 7.992,-1.584 2.376,-1.08 4.608,-2.52 6.48,-4.392 1.872,-1.944 3.384,-4.104 4.392,-6.552 1.08,-2.52 1.656,-5.256 1.656,-7.992 v -34.992 l -10.8,-3.6 v 20.52 l -1.728,-0.864 c -2.592,-1.008 -5.256,-1.584 -7.992,-1.584 -2.808,0 -5.472,0.576 -7.992,1.584 -2.448,1.08 -4.68,2.52 -6.552,4.392 -1.872,1.944 -3.384,4.104 -4.392,6.552 -1.08,2.52 -1.584,5.256 -1.584,7.992 0,2.736 0.504,5.472 1.584,7.992 z m 18.936,-17.712 c 5.328,0 9.72,4.392 9.72,9.72 0,5.328 -4.392,9.72 -9.72,9.72 -5.4,0 -9.72,-4.392 -9.72,-9.72 0,-5.328 4.32,-9.72 9.72,-9.72 z" stroke-width="0px" stroke-linejoin="miter" stroke-miterlimit="2" fill="#DBA006" stroke="#DBA006" transform="translate(0 298.25848) translate(408.24317375000004 62.90024) scale(0.77) translate(-376.38406 56.088)"/>
        <path id="path267744" style="font-style:normal;font-weight:700;font-size:72px;line-height:1;font-family:'Brandmark1 Bold';font-variant-ligatures:normal;text-align:center;text-anchor:middle" d="m 439.83631,2.736 c 2.88,0 5.616,-0.576 8.208,-1.656 2.448,-1.152 4.68,-2.664 6.552,-4.68 l -7.56,-7.2 c -1.872,2.016 -4.464,3.096 -7.2,3.096 -3.528,0 -6.552,-1.8 -8.352,-4.608 h 28.656 v -5.184 c 0,-5.472 -2.088,-10.512 -5.976,-14.4 -3.816,-3.816 -8.928,-5.904 -14.328,-5.904 -5.4,0 -10.512,2.088 -14.328,5.904 -3.816,3.888 -5.976,8.928 -5.976,14.4 0,5.4 2.16,10.512 5.976,14.328 3.816,3.816 8.928,5.904 14.328,5.904 z m 8.352,-25.488 h -16.704 c 1.8,-2.736 4.824,-4.608 8.352,-4.608 3.528,0 6.624,1.872 8.352,4.608 z" stroke-width="0px" stroke-linejoin="miter" stroke-miterlimit="2" fill="#E1A807" stroke="#E1A807" transform="translate(0 298.25848) translate(441.46732625000004 76.982) scale(0.77) translate(-419.53231 37.8)"/>
        <path id="path267746" style="font-style:normal;font-weight:700;font-size:72px;line-height:1;font-family:'Brandmark1 Bold';font-variant-ligatures:normal;text-align:center;text-anchor:middle" d="m 493.52919,-31.608 c -3.384,-3.456 -7.992,-5.328 -12.816,-5.328 -2.52,0 -5.04,0.504 -7.272,1.512 v -2.592 h -10.8 v 17.64 c -0.072,0.504 -0.072,1.08 -0.072,1.584 h 0.072 V 2.52 h 10.8 V -19.8 c 0.504,-3.6 3.6,-6.336 7.272,-6.336 4.032,0 7.344,3.312 7.344,7.344 V 2.52 h 10.8 v -21.312 c 0,-4.824 -1.872,-9.36 -5.328,-12.816 z" stroke-width="0px" stroke-linejoin="miter" stroke-miterlimit="2" fill="#E7AF08" stroke="#E7AF08" transform="translate(0 298.25848) translate(474.60572385000006 76.81568) scale(0.77) translate(-462.56919 38.016)"/>
        <path id="path267748" style="font-style:normal;font-weight:700;font-size:72px;line-height:1;font-family:'Brandmark1 Bold';font-variant-ligatures:normal;text-align:center;text-anchor:middle" d="M 541.289 406.564 C 544.283 406.564 547.11 406.01 549.827 404.901 C 552.433 403.792 554.817 402.184 556.812 400.188 C 558.808 398.137 560.416 395.809 561.525 393.203 C 562.634 390.486 563.243 387.604 563.243 384.665 L 563.243 380.286 L 541.289 380.286 L 541.289 388.99 L 553.819 388.99 C 553.153 390.875 552.1 392.593 550.659 394.035 C 548.164 396.529 544.837 397.915 541.289 397.915 C 537.741 397.915 534.415 396.529 531.92 394.035 C 529.425 391.54 528.039 388.213 528.039 384.665 C 528.039 381.117 529.425 377.791 531.92 375.296 C 534.415 372.801 537.741 371.415 541.289 371.415 C 543.451 371.415 545.503 371.914 547.388 372.912 C 549.217 373.854 550.769 375.185 551.989 376.848 L 559.03 371.748 C 557.034 368.976 554.373 366.758 551.379 365.15 C 548.33 363.543 544.837 362.711 541.289 362.711 C 538.351 362.711 535.468 363.265 532.751 364.43 C 530.146 365.539 527.817 367.146 525.766 369.142 C 523.77 371.138 522.218 373.522 521.109 376.128 C 519.945 378.844 519.39 381.672 519.39 384.665 C 519.39 387.604 519.945 390.486 521.109 393.203 C 522.218 395.809 523.77 398.137 525.766 400.188 C 527.817 402.184 530.146 403.737 532.751 404.845 C 535.468 406.01 538.351 406.564 541.289 406.564 L 541.289 406.564 Z" stroke-width="0px" stroke-linejoin="miter" stroke-miterlimit="2" fill="#EBB509" stroke="#EBB509"/>
        <path id="path267750" style="font-style:normal;font-weight:700;font-size:72px;line-height:1;font-family:'Brandmark1 Bold';font-variant-ligatures:normal;text-align:center;text-anchor:middle" d="M 578.30356,-15.192 V 2.52 h 10.8 v -17.712 c 0,-6.984 5.688,-12.6 12.6,-12.6 v -10.8 c -3.168,0 -6.192,0.576 -9.072,1.8 -2.808,1.224 -5.328,2.88 -7.416,5.04 -2.16,2.16 -3.888,4.68 -5.04,7.416 -1.224,2.88 -1.872,5.976 -1.872,9.144 z" stroke-width="0px" stroke-linejoin="miter" stroke-miterlimit="2" fill="#EEBA0C" stroke="#EEBA0C" transform="translate(0 298.25848) translate(563.72118875 76.37216000000001) scale(0.77) translate(-578.30356 38.592)"/>
        <path id="path267752" style="font-style:normal;font-weight:700;font-size:72px;line-height:1;font-family:'Brandmark1 Bold';font-variant-ligatures:normal;text-align:center;text-anchor:middle" d="m 621.06369,2.952 c 2.736,0 5.4,-0.504 7.992,-1.584 2.448,-1.008 4.608,-2.52 6.48,-4.392 1.872,-1.872 3.384,-4.104 4.392,-6.552 1.08,-2.52 1.656,-5.184 1.656,-7.992 0,-2.736 -0.576,-5.4 -1.656,-7.992 -1.008,-2.448 -2.52,-4.608 -4.392,-6.48 -1.872,-1.872 -4.104,-3.384 -6.48,-4.392 -2.592,-1.08 -5.256,-1.656 -7.992,-1.656 -2.808,0 -5.472,0.576 -7.992,1.656 -2.448,1.008 -4.68,2.52 -6.552,4.392 -1.872,1.872 -3.384,4.104 -4.392,6.48 -1.08,2.592 -1.584,5.256 -1.584,7.992 0,2.808 0.504,5.472 1.584,7.992 1.008,2.448 2.52,4.68 4.392,6.552 1.872,1.872 4.104,3.384 6.552,4.392 2.52,1.08 5.184,1.584 7.992,1.584 z m 0,-30.24 c 5.328,0 9.72,4.392 9.72,9.72 0,5.4 -4.392,9.72 -9.72,9.72 -5.4,0 -9.72,-4.32 -9.72,-9.72 0,-5.328 4.32,-9.72 9.72,-9.72 z" stroke-width="0px" stroke-linejoin="miter" stroke-miterlimit="2" fill="#F1BE0E" stroke="#F1BE0E" transform="translate(0 298.25848) translate(580.8460888500001 76.76024) scale(0.77) translate(-600.54369 38.088)"/>
        <path id="path267754" style="font-style:normal;font-weight:700;font-size:72px;line-height:1;font-family:'Brandmark1 Bold';font-variant-ligatures:normal;text-align:center;text-anchor:middle" d="m 668.10556,-17.424 6.192,19.944 h 9.144 l 13.824,-40.104 h -11.304 l -6.984,20.88 -6.48,-20.88 h -8.784 l -6.336,20.88 -7.056,-20.88 h -11.304 l 13.824,40.104 h 9 z" stroke-width="0px" stroke-linejoin="miter" stroke-miterlimit="2" fill="#F4C310" stroke="#F4C310" transform="translate(0 298.25848) translate(610.4709687500002 77.14832) scale(0.77) translate(-639.01756 37.584)"/>
        <path id="path267756" style="font-style:normal;font-weight:700;font-size:72px;line-height:1;font-family:'Brandmark1 Bold';font-variant-ligatures:normal;text-align:center;text-anchor:middle" d="m 710.12994,-19.008 v -8.496 h 11.448 v -10.08 h -11.448 v -12.888 l -10.8,3.6 v 27.864 c 0,3.024 0.576,5.976 1.728,8.712 1.152,2.664 2.736,5.04 4.824,7.056 2.016,2.016 4.392,3.672 7.056,4.752 2.736,1.152 5.616,1.728 8.64,1.728 v -10.8 c -6.336,0 -11.448,-5.112 -11.448,-11.448 z" stroke-width="0px" stroke-linejoin="miter" stroke-miterlimit="2" fill="#F7C713" stroke="#F7C713" transform="translate(0 298.25848) translate(656.9115013500001 67.22456) scale(0.77) translate(-699.32994 50.472)"/>
        <path id="path267758" style="font-style:normal;font-weight:700;font-size:72px;line-height:1;font-family:'Brandmark1 Bold';font-variant-ligatures:normal;text-align:center;text-anchor:middle" d="m 755.72956,-31.968 c -3.456,-3.456 -8.064,-5.4 -12.96,-5.4 -2.592,0 -5.112,0.576 -7.416,1.584 v -19.728 l -10.8,3.6 v 31.248 c -0.072,0.504 -0.072,1.08 -0.072,1.584 h 0.072 v 21.6 h 10.8 v -22.608 c 0.504,-3.672 3.672,-6.48 7.416,-6.48 4.176,0 7.488,3.384 7.488,7.488 v 21.6 h 10.8 v -21.6 c 0,-4.824 -1.872,-9.432 -5.328,-12.888 z" stroke-width="0px" stroke-linejoin="miter" stroke-miterlimit="2" fill="#FACC15" stroke="#FACC15" transform="translate(0 298.25848) translate(676.27824875 63.34376) scale(0.77) translate(-724.48156 55.512)"/>
      </g>
      <image id="icon" style="display: none;" x="0" y="0" fill="#FFFFFF" xlink:href=""/>
    </g>
  </g>
</svg>