<?xml version="1.0" encoding="utf-8"?>
<svg id="svg267727" viewBox="0 0 600 600" height="600px" width="600px" version="1.1" xmlns="http://www.w3.org/2000/svg" xmlns:bx="https://boxy-svg.com">
  <defs>
    <bx:guide x="305.288" y="296.458" angle="90"/>
    <linearGradient id="color-0" gradientUnits="userSpaceOnUse" bx:pinned="true">
      <title>2</title>
      <stop style="stop-color: rgb(202, 138, 4);"/>
    </linearGradient>
    <linearGradient id="color-1" gradientUnits="userSpaceOnUse" bx:pinned="true">
      <title>1</title>
      <stop style="stop-color: rgb(234, 179, 8);"/>
    </linearGradient>
    <linearGradient id="color-2" gradientUnits="userSpaceOnUse" bx:pinned="true">
      <title>0</title>
      <stop style="stop-color: rgb(250, 204, 21);"/>
    </linearGradient>
    <linearGradient id="color-3" gradientUnits="userSpaceOnUse" gradientTransform="matrix(1, 0, 0, 1, -0.196183, -0.336159)" bx:pinned="true">
      <title>0</title>
      <stop style="stop-color: rgb(37, 36, 33);"/>
    </linearGradient>
    <linearGradient id="color-4" gradientUnits="userSpaceOnUse" bx:pinned="true">
      <title>1</title>
      <stop style="stop-color: rgb(24, 23, 21);"/>
    </linearGradient>
    <linearGradient gradientUnits="userSpaceOnUse" x1="431.96" y1="359.986" x2="431.96" y2="588.535" id="gradient-0" spreadMethod="reflect" gradientTransform="matrix(1, 0, 0, 1, -0.196183, -0.336159)">
      <stop offset="0" style="stop-color: rgb(0% 0% 0%)"/>
      <stop offset="1" style="stop-color: rgb(0% 0% 0%)"/>
    </linearGradient>
    <linearGradient gradientUnits="userSpaceOnUse" x1="499.871" y1="472.198" x2="499.871" y2="474.937" id="gradient-1" gradientTransform="matrix(1.217406, 0, 0, 3.023625, -0.000232, 0.000437)">
      <stop offset="0" style="stop-color: rgb(0% 0% 0%)"/>
      <stop offset="1" style="stop-color: rgb(0% 0% 0%)"/>
    </linearGradient>
    <linearGradient id="gradient-2" bx:pinned="true">
      <stop offset="0" style="stop-color: rgb(230, 174, 8);"/>
      <stop offset="1" style="stop-color: rgb(250, 204, 21);"/>
    </linearGradient>
  </defs>
  <g id="logo-group" fill="#FFFFFF" transform="matrix(2.632823, 0, 0, 2.632823, -836.461304, -947.256958)" style="">
    <rect x="317.065" y="359.65" width="229.399" height="228.549" style="fill: url('#color-3'); stroke-opacity: 0; stroke: url('#gradient-0'); paint-order: stroke;"/>
    <g transform="matrix(1, 0, 0, 1, -0.021661, 38.192142)" style="transform-origin: 317.727px 319.696px;">
      <title>Golen</title>
      <path id="path267736" style="font-style:normal;font-weight:700;font-size:72px;line-height:1;font-family:'Brandmark1 Bold';font-variant-ligatures:normal;text-align:center;text-anchor:middle" d="M 362.414 433.469 C 365.408 433.469 368.236 432.914 370.952 431.806 C 373.558 430.697 375.942 429.089 377.938 427.093 C 379.933 425.042 381.541 422.714 382.65 420.108 C 383.759 417.391 384.369 414.508 384.369 411.57 L 384.369 407.19 L 362.414 407.19 L 362.414 415.894 L 374.944 415.894 C 374.279 417.779 373.225 419.498 371.784 420.939 C 369.289 423.434 365.963 424.82 362.414 424.82 C 358.866 424.82 355.54 423.434 353.045 420.939 C 350.55 418.445 349.164 415.118 349.164 411.57 C 349.164 408.022 350.55 404.696 353.045 402.201 C 355.54 399.706 358.866 398.32 362.414 398.32 C 364.577 398.32 366.628 398.819 368.513 399.817 C 370.342 400.759 371.895 402.09 373.114 403.753 L 380.155 398.653 C 378.159 395.881 375.498 393.663 372.505 392.055 C 369.455 390.447 365.963 389.616 362.414 389.616 C 359.476 389.616 356.593 390.17 353.877 391.334 C 351.271 392.443 348.943 394.051 346.891 396.047 C 344.895 398.043 343.343 400.427 342.234 403.032 C 341.07 405.749 340.516 408.576 340.516 411.57 C 340.516 414.508 341.07 417.391 342.234 420.108 C 343.343 422.714 344.895 425.042 346.891 427.093 C 348.943 429.089 351.271 430.641 353.877 431.75 C 356.593 432.914 359.476 433.469 362.414 433.469 L 362.414 433.469 Z" stroke-width="0px" stroke-linejoin="miter" stroke-miterlimit="2" fill="#CA8A04" stroke="#CA8A04"/>
      <path id="path267738" style="font-style:normal;font-weight:700;font-size:72px;line-height:1;font-family:'Brandmark1 Bold';font-variant-ligatures:normal;text-align:center;text-anchor:middle" d="M 400.939 433.524 C 403.046 433.524 405.097 433.136 407.093 432.305 C 408.978 431.528 410.641 430.364 412.083 428.923 C 413.524 427.481 414.688 425.763 415.464 423.878 C 416.296 421.937 416.74 419.886 416.74 417.724 C 416.74 415.617 416.296 413.566 415.464 411.57 C 414.688 409.685 413.524 408.022 412.083 406.58 C 410.641 405.139 408.923 403.975 407.093 403.199 C 405.097 402.367 403.046 401.924 400.939 401.924 C 398.777 401.924 396.726 402.367 394.785 403.199 C 392.9 403.975 391.182 405.139 389.74 406.58 C 388.299 408.022 387.135 409.741 386.358 411.57 C 385.527 413.566 385.139 415.617 385.139 417.724 C 385.139 419.886 385.527 421.937 386.358 423.878 C 387.135 425.763 388.299 427.481 389.74 428.923 C 391.182 430.364 392.9 431.528 394.785 432.305 C 396.726 433.136 398.777 433.524 400.939 433.524 Z M 400.939 410.24 C 405.042 410.24 408.424 413.621 408.424 417.724 C 408.424 421.882 405.042 425.208 400.939 425.208 C 396.781 425.208 393.455 421.882 393.455 417.724 C 393.455 413.621 396.781 410.24 400.939 410.24 Z" stroke-width="0px" stroke-linejoin="miter" stroke-miterlimit="2" fill="#D09105" stroke="#D09105"/>
      <path id="path267740" style="font-style:normal;font-weight:700;font-size:72px;line-height:1;font-family:'Brandmark1 Bold';font-variant-ligatures:normal;text-align:center;text-anchor:middle" d="M 418.477 391.279 L 418.477 433.192 L 426.848 433.192 L 426.848 388.507 L 418.477 391.279 Z" stroke-width="0px" stroke-linejoin="miter" stroke-miterlimit="2" fill="#D69905" stroke="#D69905"/>
      <path id="path267742" style="font-style:normal;font-weight:700;font-size:72px;line-height:1;font-family:'Brandmark1 Bold';font-variant-ligatures:normal;text-align:center;text-anchor:middle" d="M 430.42 423.933 C 431.196 425.818 432.361 427.481 433.802 428.978 C 435.244 430.42 436.962 431.528 438.847 432.36 C 440.788 433.136 442.839 433.58 445.001 433.58 C 447.108 433.58 449.159 433.136 451.155 432.36 C 452.984 431.528 454.703 430.42 456.144 428.978 C 457.586 427.481 458.75 425.818 459.526 423.933 C 460.358 421.993 460.801 419.886 460.801 417.779 L 460.801 390.836 L 452.485 388.064 L 452.485 403.864 L 451.155 403.199 C 449.159 402.422 447.108 401.979 445.001 401.979 C 442.839 401.979 440.788 402.422 438.847 403.199 C 436.962 404.03 435.244 405.139 433.802 406.58 C 432.361 408.077 431.196 409.741 430.42 411.626 C 429.589 413.566 429.201 415.673 429.201 417.779 C 429.201 419.886 429.589 421.993 430.42 423.933 L 430.42 423.933 Z M 445.001 410.295 C 449.104 410.295 452.485 413.677 452.485 417.779 C 452.485 421.882 449.104 425.264 445.001 425.264 C 440.843 425.264 437.517 421.882 437.517 417.779 C 437.517 413.677 440.843 410.295 445.001 410.295 Z" stroke-width="0px" stroke-linejoin="miter" stroke-miterlimit="2" fill="#DBA006" stroke="#DBA006"/>
      <path id="path267744" style="font-style:normal;font-weight:700;font-size:72px;line-height:1;font-family:'Brandmark1 Bold';font-variant-ligatures:normal;text-align:center;text-anchor:middle" d="M 478.059 433.358 C 480.276 433.358 482.383 432.914 484.379 432.083 C 486.264 431.196 487.983 430.032 489.424 428.479 L 483.603 422.935 C 482.161 424.488 480.166 425.319 478.059 425.319 C 475.342 425.319 473.014 423.933 471.628 421.771 L 493.693 421.771 L 493.693 417.779 C 493.693 413.566 492.085 409.685 489.091 406.691 C 486.153 403.753 482.217 402.145 478.059 402.145 C 473.901 402.145 469.965 403.753 467.026 406.691 C 464.088 409.685 462.425 413.566 462.425 417.779 C 462.425 421.937 464.088 425.874 467.026 428.812 C 469.965 431.75 473.901 433.358 478.059 433.358 L 478.059 433.358 Z M 484.49 413.732 L 471.628 413.732 C 473.014 411.625 475.342 410.184 478.059 410.184 C 480.775 410.184 483.159 411.625 484.49 413.732 L 484.49 413.732 Z" stroke-width="0px" stroke-linejoin="miter" stroke-miterlimit="2" fill="#E1A807" stroke="#E1A807"/>
      <path id="path267746" style="font-style:normal;font-weight:700;font-size:72px;line-height:1;font-family:'Brandmark1 Bold';font-variant-ligatures:normal;text-align:center;text-anchor:middle" d="M 519.402 406.913 C 516.797 404.252 513.248 402.811 509.534 402.811 C 507.594 402.811 505.653 403.199 503.935 403.975 L 503.935 401.979 L 495.619 401.979 L 495.619 416.781 L 495.713 435.633 L 504.079 435.556 L 503.935 416.005 C 504.323 413.233 506.707 411.127 509.534 411.127 C 512.639 411.127 515.189 413.677 515.189 416.781 L 515.189 433.192 L 523.505 433.192 L 523.505 416.781 C 523.505 413.067 522.063 409.574 519.402 406.913 Z" stroke-width="0px" stroke-linejoin="miter" stroke-miterlimit="2" fill="#E7AF08" stroke="#E7AF08"/>
    </g>
    <g transform="matrix(1, 0, 0, 1, -200.233704, 85.226707)" style="transform-origin: 517.939px 274.561px;">
      <title>Growth</title>
      <path id="path267748" style="font-style:normal;font-weight:700;font-size:72px;line-height:1;font-family:'Brandmark1 Bold';font-variant-ligatures:normal;text-align:center;text-anchor:middle" d="M 562.626 433.469 C 565.62 433.469 568.448 432.914 571.164 431.806 C 573.77 430.697 576.154 429.089 578.15 427.093 C 580.146 425.042 581.753 422.714 582.862 420.108 C 583.971 417.391 584.581 414.508 584.581 411.57 L 584.581 407.19 L 562.626 407.19 L 562.626 415.894 L 575.156 415.894 C 574.491 417.779 573.437 419.498 571.996 420.939 C 569.501 423.434 566.175 424.82 562.626 424.82 C 559.078 424.82 555.752 423.434 553.257 420.939 C 550.762 418.445 549.376 415.118 549.376 411.57 C 549.376 408.022 550.762 404.696 553.257 402.201 C 555.752 399.706 559.078 398.32 562.626 398.32 C 564.789 398.32 566.84 398.819 568.725 399.817 C 570.554 400.759 572.107 402.09 573.326 403.753 L 580.367 398.653 C 578.371 395.881 575.71 393.663 572.717 392.055 C 569.667 390.447 566.175 389.616 562.626 389.616 C 559.688 389.616 556.805 390.17 554.089 391.334 C 551.483 392.443 549.155 394.051 547.103 396.047 C 545.107 398.043 543.555 400.427 542.446 403.032 C 541.282 405.749 540.728 408.576 540.728 411.57 C 540.728 414.508 541.282 417.391 542.446 420.108 C 543.555 422.714 545.107 425.042 547.103 427.093 C 549.155 429.089 551.483 430.641 554.089 431.75 C 556.805 432.914 559.688 433.469 562.626 433.469 L 562.626 433.469 Z" stroke-width="0px" stroke-linejoin="miter" stroke-miterlimit="2" fill="#EBB509" stroke="#EBB509"/>
      <path id="path267750" style="font-style:normal;font-weight:700;font-size:72px;line-height:1;font-family:'Brandmark1 Bold';font-variant-ligatures:normal;text-align:center;text-anchor:middle" d="M 585.059 419.553 L 585.059 433.192 L 593.375 433.192 L 593.375 419.553 C 593.375 414.176 597.754 409.851 603.077 409.851 L 603.077 401.535 C 600.637 401.535 598.309 401.979 596.091 402.921 C 593.929 403.864 591.989 405.139 590.381 406.802 C 588.718 408.465 587.387 410.406 586.5 412.513 C 585.558 414.73 585.059 417.114 585.059 419.553 Z" stroke-width="0px" stroke-linejoin="miter" stroke-miterlimit="2" fill="#EEBA0C" stroke="#EEBA0C"/>
      <path id="path267752" style="font-style:normal;font-weight:700;font-size:72px;line-height:1;font-family:'Brandmark1 Bold';font-variant-ligatures:normal;text-align:center;text-anchor:middle" d="M 618.364 433.524 C 620.471 433.524 622.522 433.136 624.518 432.305 C 626.403 431.528 628.066 430.364 629.507 428.923 C 630.949 427.481 632.113 425.763 632.889 423.878 C 633.721 421.937 634.164 419.886 634.164 417.724 C 634.164 415.617 633.721 413.566 632.889 411.57 C 632.113 409.685 630.949 408.022 629.507 406.58 C 628.066 405.139 626.347 403.975 624.518 403.199 C 622.522 402.367 620.471 401.924 618.364 401.924 C 616.202 401.924 614.15 402.367 612.21 403.199 C 610.325 403.975 608.606 405.139 607.165 406.58 C 605.724 408.022 604.559 409.741 603.783 411.57 C 602.952 413.566 602.563 415.617 602.563 417.724 C 602.563 419.886 602.952 421.937 603.783 423.878 C 604.559 425.763 605.724 427.481 607.165 428.923 C 608.606 430.364 610.325 431.528 612.21 432.305 C 614.15 433.136 616.202 433.524 618.364 433.524 Z M 618.364 410.24 C 622.466 410.24 625.848 413.621 625.848 417.724 C 625.848 421.882 622.466 425.208 618.364 425.208 C 614.206 425.208 610.879 421.882 610.879 417.724 C 610.879 413.621 614.206 410.24 618.364 410.24 Z" stroke-width="0px" stroke-linejoin="miter" stroke-miterlimit="2" fill="#F1BE0E" stroke="#F1BE0E"/>
      <path id="path267754" style="font-style:normal;font-weight:700;font-size:72px;line-height:1;font-family:'Brandmark1 Bold';font-variant-ligatures:normal;text-align:center;text-anchor:middle" d="M 653.826 417.835 L 658.594 433.192 L 665.635 433.192 L 676.279 402.312 L 667.575 402.312 L 662.198 418.389 L 657.208 402.312 L 650.444 402.312 L 645.566 418.389 L 640.132 402.312 L 631.428 402.312 L 642.073 433.192 L 649.003 433.192 L 653.826 417.835 Z" stroke-width="0px" stroke-linejoin="miter" stroke-miterlimit="2" fill="#F4C310" stroke="#F4C310"/>
      <path id="path267756" style="font-style:normal;font-weight:700;font-size:72px;line-height:1;font-family:'Brandmark1 Bold';font-variant-ligatures:normal;text-align:center;text-anchor:middle" d="M 685.805 416.615 L 685.805 410.073 L 694.62 410.073 L 694.62 402.312 L 685.805 402.312 L 685.805 392.388 L 677.489 395.16 L 677.489 416.615 C 677.489 418.944 677.932 421.217 678.819 423.323 C 679.706 425.375 680.926 427.204 682.534 428.756 C 684.086 430.309 685.916 431.584 687.967 432.415 C 690.074 433.303 692.291 433.746 694.62 433.746 L 694.62 425.43 C 689.741 425.43 685.805 421.494 685.805 416.615 Z" stroke-width="0px" stroke-linejoin="miter" stroke-miterlimit="2" fill="#F7C713" stroke="#F7C713"/>
      <path id="path267758" style="font-style: normal; font-weight: 700; font-size: 72px; line-height: 1; font-family: 'Brandmark1 Bold'; font-variant-ligatures: normal; text-align: center; text-anchor: middle;" d="M 719.692 406.636 C 717.08 403.975 713.597 402.478 709.897 402.478 C 707.939 402.478 706.034 402.921 704.291 403.698 L 704.291 388.507 L 695.925 388.568 L 696.13 433.192 L 704.291 433.192 L 704.291 415.783 C 704.672 412.956 707.068 410.794 709.897 410.794 C 713.053 410.794 715.556 413.4 715.556 416.56 L 715.556 433.192 L 723.718 433.192 L 723.718 416.56 C 723.718 412.845 722.304 409.297 719.692 406.636 Z" stroke-width="0px" stroke-linejoin="miter" stroke-miterlimit="2" fill="#FACC15" stroke="#FACC15"/>
    </g>
    <rect x="603.466" y="1427.751" width="10.172" height="8.283" style="fill: url('#gradient-2'); stroke-width: 0px; stroke: url('#gradient-1'); paint-order: fill; transform-box: fill-box; transform-origin: 50% 50%;" transform="matrix(0, 1, -1, 0, -108.674337, -958.153807)">
      <title>n-h</title>
    </rect>
  </g>
</svg>